<svg height="512pt" viewBox="0 -25 512 512" width="512pt" xmlns="http://www.w3.org/2000/svg"><g fill-rule="evenodd"><path d="m430.109375 346.597656v-35.460937l-182.441406-33.652344-152.171875 33.652344h-18.601563v35.460937l172.109375 27.523438zm0 0" fill="#808080"/><path d="m112.609375 346.597656v-35.460937h-35.714844v35.460937zm0 0" fill="#525252"/><path d="m401.214844 7.570312h-149.367188c-2.71875 0-4.964844 2.21875-4.964844 4.941407v32.34375l79.648438 15.867187 79.648438-15.867187v-32.34375c0-2.722657-2.246094-4.941407-4.964844-4.941407zm0 0" fill="#808080"/><path d="m266.6875 44.855469v-32.34375c0-2.722657 2.21875-4.941407 4.941406-4.941407h-19.78125c-2.71875 0-4.964844 2.21875-4.964844 4.941407v32.34375zm0 0" fill="#525252"/><path d="m59.808594 44.855469h387.414062c28.730469 0 52.242188 23.527343 52.242188 52.28125v161.71875c0 28.75-23.511719 52.28125-52.242188 52.28125h-387.414062c-28.753906 0-52.238282-23.53125-52.238282-52.28125v-161.71875c0-28.75 23.484376-52.28125 52.238282-52.28125zm0 0" fill="#e8e8e8"/><path d="m38.320312 258.855469v-161.71875c0-28.75 23.507813-52.28125 52.238282-52.28125h-30.75c-20.816406 0-38.882813 12.355469-47.269532 30.074219-3.199218 6.765624-4.96875 14.289062-4.96875 22.207031v161.722656c0 7.914063 1.769532 15.441406 4.96875 22.179687 8.386719 17.746094 26.453126 30.097657 47.269532 30.097657h30.75c-6.285156 0-12.316406-1.121094-17.898438-3.171875-4.632812-1.710938-8.949218-4.042969-12.851562-6.933594-13.015625-9.519531-21.488282-24.90625-21.488282-42.175781zm0 0" fill="#ccc"/><path d="m141.507812 421.195312-36.390624-20.351562-36.355469 20.351562v22.773438c0 5.222656 4.261719 9.460938 9.453125 9.460938h53.835937c5.191407 0 9.457031-4.238282 9.457031-9.460938zm0 0" fill="#808080"/><path d="m442.875 421.195312-42.363281-20.351562-30.382813 20.351562v22.773438c0 5.222656 4.265625 9.460938 9.453125 9.460938h53.839844c5.1875 0 9.453125-4.238282 9.453125-9.460938zm0 0" fill="#808080"/><path d="m457.128906 346.597656h-434.6875c-5.445312 0-9.902344 4.464844-9.902344 9.910156v54.777344c0 5.445313 4.457032 9.910156 9.902344 9.910156h472.082032c5.414062 0 9.847656-4.40625 9.90625-9.824218v-54.949219c-.058594-5.417969-4.492188-9.824219-9.90625-9.824219zm0 0" fill="#e8e8e8"/><path d="m433.226562 176.367188c0-48.261719-39.082031-87.402344-87.308593-87.402344-48.226563 0-87.335938 39.140625-87.335938 87.402344 0 48.265624 39.109375 87.375 87.335938 87.375 48.226562 0 87.308593-39.109376 87.308593-87.375zm0 0" fill="#55b8e6"/><path d="m285.933594 174.460938c0-41.472657 28.871094-76.199219 67.613281-85.160157-2.523437-.222656-5.074219-.335937-7.628906-.335937-48.226563 0-87.335938 39.140625-87.335938 87.402344 0 48.265624 39.109375 87.375 87.335938 87.375 6.761719 0 13.355469-.757813 19.695312-2.21875-44.636719-3.875-79.679687-41.382813-79.679687-87.0625zm0 0" fill="#507fcf"/><path d="m49.90625 411.285156v-54.777344c0-5.445312 4.433594-9.910156 9.902344-9.910156h-37.367188c-5.445312 0-9.902344 4.464844-9.902344 9.910156v54.777344c0 5.445313 4.457032 9.910156 9.902344 9.910156h37.367188c-5.46875 0-9.902344-4.464843-9.902344-9.910156zm0 0" fill="#ccc"/><path d="m106.128906 421.195312h-37.367187v22.773438c0 5.222656 4.261719 9.460938 9.453125 9.460938h37.371094c-5.21875 0-9.457032-4.238282-9.457032-9.460938zm0 0" fill="#525252"/><path d="m407.496094 421.195312h-37.367188v22.773438c0 5.222656 4.265625 9.460938 9.453125 9.460938h37.371094c-5.191406 0-9.457031-4.238282-9.457031-9.460938zm0 0" fill="#525252"/><path d="m381.828125 189.675781c0-5.753906-1.488281-11.171875-4.097656-15.945312l-15.429688-26.757813c-3.898437-6.402344 0 0-8.191406-13.757812-3.984375-5.671875-11.53125-6.570313-16.636719.953125l-7.800781 12.804687-15.570313 26.757813c-2.636718 4.773437-4.125 10.191406-4.125 15.945312 0 18.953125 16.078126 34.3125 35.941407 34.3125 19.835937-.003906 35.910156-15.359375 35.910156-34.3125zm0 0" fill="#ffcc73"/><path d="m328.636719 185.632812c0-5.78125 1.484375-11.199218 4.125-15.976562l15.597656-26.753906 5.804687-9.546875c-.027343-.058594-.027343-.085938-.054687-.140625-3.984375-5.671875-11.53125-6.570313-16.636719.953125l-7.800781 12.804687-15.570313 26.753906c-2.636718 4.773438-4.125 10.195313-4.125 15.949219 0 18.953125 16.078126 34.308594 35.941407 34.308594 6.171875 0 11.949219-1.488281 17.027343-4.097656-19.078124-.816407-34.308593-15.835938-34.308593-34.253907zm0 0" fill="#f59556"/></g><path d="m251.011719 176.367188c0 52.355468 42.574219 94.945312 94.90625 94.945312 52.316406 0 94.878906-42.59375 94.878906-94.945312 0-52.367188-42.5625-94.972657-94.878906-94.972657-52.332031 0-94.90625 42.605469-94.90625 94.972657zm94.90625-79.832032c43.96875 0 79.734375 35.8125 79.734375 79.832032 0 44.003906-35.765625 79.804687-79.734375 79.804687-43.984375 0-79.765625-35.800781-79.765625-79.804687 0-44.015626 35.78125-79.832032 79.765625-79.832032zm0 0"/><path d="m345.917969 231.558594c23.976562 0 43.480469-18.789063 43.480469-41.882813 0-6.792969-1.738282-13.5625-5.023438-19.578125-.027344-.050781-.054688-.101562-.085938-.152344l-15.429687-26.753906c-.03125-.054687-.0625-.105468-.09375-.15625-1.890625-3.105468-1.890625-3.105468-2.410156-3.996094-.539063-.925781-1.621094-2.777343-5.742188-9.695312-.097656-.164062-.199219-.324219-.308593-.480469-3.433594-4.886719-8.5625-7.6875-14.074219-7.6875-5.863281 0-11.195313 3.105469-15.023438 8.746094-.070312.101563-.136719.207031-.199219.3125l-7.800781 12.800781c-.027343.042969-.054687.089844-.078125.132813l-15.570312 26.753906c-.027344.050781-.054688.097656-.082032.148437-3.316406 6-5.070312 12.78125-5.070312 19.609376 0 23.089843 19.519531 41.878906 43.511719 41.878906zm-25.226563-54.097656 15.488282-26.617188 7.648437-12.554688c.953125-1.363281 1.890625-1.976562 2.402344-1.976562.371093 0 .980469.335938 1.550781 1.074219 3.925781 6.589843 4.96875 8.378906 5.492188 9.277343.546874.941407.550781.949219 2.511718 4.167969l15.339844 26.597657c2.078125 3.828124 3.128906 7.949218 3.128906 12.246093 0 14.746094-12.710937 26.738281-28.335937 26.738281-15.644531 0-28.371094-11.992187-28.371094-26.738281.003906-4.308593 1.058594-8.414062 3.144531-12.214843zm0 0"/><path d="m494.523438 339.027344h-56.84375v-20.320313h9.542968c32.980469 0 59.808594-26.847656 59.808594-59.851562v-161.71875c0-33-26.828125-59.851563-59.808594-59.851563h-33.472656v-24.773437c0-6.898438-5.625-12.511719-12.539062-12.511719h-149.363282c-6.914062 0-12.535156 5.613281-12.535156 12.511719v24.816406l-36.789062-.011719c-.210938-.015625-.425782-.03125-.640626-.03125h-106.386718c-.054688 0-.105469.007813-.160156.007813l-35.527344-.007813c-32.976563 0-59.808594 26.851563-59.808594 59.851563v161.722656c0 33 26.832031 59.847656 59.808594 59.847656h9.515625v20.324219l-46.882813-.003906c-9.636718 0-17.476562 7.84375-17.476562 17.480468v54.777344c0 9.640625 7.839844 17.484375 17.476562 17.484375h38.746094v15.199219c0 9.390625 7.640625 17.03125 17.027344 17.03125h53.835937c9.390625 0 17.027344-7.640625 17.027344-17.03125v-15.199219h213.480469v15.199219c0 9.390625 7.636718 17.03125 17.023437 17.03125h53.839844c9.386719 0 17.023437-7.640625 17.023437-17.03125v-15.199219h44.078126c9.636718 0 17.476562-7.84375 17.476562-17.484375v-54.777344c0-9.640624-7.839844-17.480468-17.476562-17.480468zm-240.070313-323.882813h144.15625v22.140625h-54.992187c-4.179688 0-7.570313 3.390625-7.570313 7.570313 0 4.179687 3.390625 7.570312 7.570313 7.570312h103.605468c24.632813 0 44.667969 20.054688 44.667969 44.710938v161.71875c0 24.652343-20.035156 44.710937-44.667969 44.710937h-237.769531v-251.105468l99.90625.023437c4.183594 0 7.570313-3.390625 7.574219-7.570313 0-4.179687-3.390625-7.570312-7.570313-7.570312l-54.910156-.015625zm-60.144531 155.28125h-91.242188v-51.429687h91.242188zm-91.242188 15.140625h91.242188v51.429688h-91.242188zm91.242188-133.109375v51.398438h-91.242188v-51.417969zm-91.242188 199.679688h91.242188v51.429687h-91.242188zm-87.925781 6.71875v-161.71875c0-24.652344 20.039063-44.710938 44.667969-44.710938l28.117187.007813v251.132812h-28.117187c-24.628906 0-44.667969-20.054687-44.667969-44.710937zm118.792969 185.113281c0 1.023438-.863282 1.890625-1.882813 1.890625h-53.835937c-1.023438 0-1.886719-.867187-1.886719-1.890625v-15.199219h57.605469zm301.371094 0c0 1.023438-.863282 1.890625-1.882813 1.890625h-53.839844c-1.019531 0-1.882812-.867187-1.882812-1.890625v-15.199219h57.605469zm61.550781-32.683594c0 1.269532-1.066407 2.339844-2.332031 2.339844h-472.082032c-1.265625 0-2.332031-1.070312-2.332031-2.339844v-54.777344c0-1.269531 1.066406-2.339843 2.332031-2.339843l209.710938.027343c4.183594 0 7.570312-3.390624 7.570312-7.570312s-3.386718-7.570312-7.570312-7.570312l-147.6875-.019532v-20.328125h338.074218v20.320313h-156.101562c-4.183594 0-7.574219 3.386718-7.574219 7.570312 0 4.179688 3.390625 7.570313 7.574219 7.570313h228.085938c1.265624 0 2.332031 1.070312 2.332031 2.339843zm0 0"/></svg>