<svg id="Capa_1" enable-background="new 0 0 512.001 512.001" height="512" viewBox="0 0 512.001 512.001" width="512" xmlns="http://www.w3.org/2000/svg"><g clip-rule="evenodd" fill-rule="evenodd"><path d="m372.003 156.001v80 80h49.997 70.002v-80.003h-79.997v-39.995h79.997v-20.003c0-10.999-8.999-20-20-20h-99.999z" fill="#fff7bf"/><path d="m412.005 196.002h79.997v39.995h-79.997z" fill="#ccf5fc"/><path d="m492.002 316h-70.002c22.092 0 40 17.908 40 40h30.002c5.5 0 10-4.5 10-10v-20c-.001-5.5-4.5-10-10-10z" fill="#dad0d3"/><ellipse cx="422" cy="356" fill="#8690af" rx="40" ry="40" transform="matrix(.973 -.23 .23 .973 -70.503 106.479)"/><path d="m382 356c0-22.092 17.908-40 40-40h-49.997-80-122.002c22.091 0 40 17.908 40 40z" fill="#dad0d3"/><ellipse cx="170.001" cy="356" fill="#8690af" rx="40" ry="40" transform="matrix(.392 -.92 .92 .392 -224.151 372.762)"/><ellipse cx="90.001" cy="356" fill="#8690af" rx="40" ry="40" transform="matrix(.974 -.226 .226 .974 -78.087 29.53)"/><path d="m50.001 356c0-22.092 17.908-40 40-40h-70.001c-5.5 0-10 4.5-10 10v20c0 5.499 4.5 10 10 10z" fill="#dad0d3"/><path d="m20 236c0 44 36 80 80 80h70.002 122.003c44 0 80-36 80-80s-36-80-80-80h-66.002-60-66.004c-44 .001-79.999 36-79.999 80z" fill="#ffcd69"/><path d="m166.001 116.001h60v40h-60z" fill="#fff7bf"/></g><path d="m89.998 346c-5.523 0-10 4.477-10 10s4.477 10 10 10h.007c5.523 0 9.997-4.477 9.997-10s-4.481-10-10.004-10z"/><path d="m421.996 346c-5.522 0-10 4.477-10 10s4.478 10 10 10h.008c5.522 0 9.996-4.477 9.996-10s-4.481-10-10.004-10z"/><path d="m169.998 346c-5.523 0-10 4.477-10 10s4.477 10 10 10h.007c5.523 0 9.997-4.477 9.997-10s-4.481-10-10.004-10z"/><path d="m502.002 308.707v-132.707c0-16.542-13.458-30-30-30h-99.999c-5.522 0-10 4.477-10 10v23.5c-16.512-20.418-41.755-33.5-69.999-33.5h-56.002v-30c0-5.523-4.477-10-10-10h-60c-5.523 0-10 4.477-10 10v30h-56.003c-8.396 0-16.725 1.172-24.755 3.484-5.307 1.528-8.371 7.069-6.843 12.376s7.069 8.37 12.376 6.843c3.025-.871 6.107-1.529 9.222-1.98v138.55c-33.876-4.867-59.999-34.071-59.999-69.273 0-3.521.268-7.063.797-10.529.833-5.459-2.917-10.561-8.377-11.395-5.463-.834-10.561 2.917-11.395 8.377-.68 4.461-1.025 9.019-1.025 13.547 0 28.245 13.082 53.487 33.501 70h-23.501c-11.028 0-20 8.972-20 20v20c0 11.028 8.972 20 20 20h21.008c4.646 22.795 24.847 40 48.994 40 16.339 0 30.87-7.878 40-20.034 9.13 12.156 23.662 20.034 40 20.034 24.146 0 44.348-17.205 48.994-40h154.011c4.646 22.795 24.847 40 48.994 40s44.348-17.205 48.994-40h21.008c11.027 0 19.999-8.972 19.999-20v-20c-.001-7.383-4.033-13.829-10-17.293zm-20-82.71h-59.997v-19.996h59.997zm-99.999-59.996h89.999c5.514 0 10 4.486 10 10v10.001h-69.997c-5.522 0-10 4.477-10 10v39.996c0 5.523 4.478 10 10 10h69.997v20.001h-.001-9.999c-5.522 0-10 4.477-10 10s4.478 10 10 10h9.999.001v20.001h-59.983c-.007 0-.013 0-.019 0s-.013 0-.019 0h-39.978zm-8.997 179.999h-154.011c-1.505-7.386-4.644-14.183-9.021-20h82.024.006.022 79.97.007s.005 0 .007 0h10.017c-4.376 5.817-7.516 12.615-9.021 20zm-24.504-40c4.961-4.012 9.488-8.539 13.501-13.501v13.501zm13.501-70c0 38.598-31.401 70-69.999 70h-142.004v-140h142.003c38.599.001 70 31.403 70 70zm-232.003-9.997h-20.001v-20.001h20.001zm-20.001 20h20.001v20.001h-20.001zm20.001-60.001h-20.001v-20.001h20.001zm-20.001 100.003h20.001v19.995h-20.001zm20.029 39.995c-.009.012-.018.023-.027.034-.009-.012-.018-.023-.027-.034zm45.973-199.999h40v20h-40zm-156.001 199.999h30.029c-4.377 5.817-7.516 12.614-9.021 20h-21.008zm70.001 60c-16.542 0-30-13.458-30-30 0-16.537 13.449-29.991 29.984-30h.033c16.531.009 29.978 13.458 29.983 29.99v.01s0 .006 0 .01c-.005 16.537-13.461 29.99-30 29.99zm80 0c-16.539 0-29.995-13.453-30-29.99 0-.003 0-.006 0-.01s0-.006 0-.01c.005-16.534 13.454-29.983 29.987-29.991h.026c16.534.007 29.983 13.459 29.987 29.994v.006s0 .004 0 .006c-.003 16.541-13.46 29.995-30 29.995zm251.999 0c-16.542 0-30-13.458-30-30s13.457-29.999 29.997-30h.006c16.54.001 29.997 13.459 29.997 30 0 16.542-13.458 30-30 30zm48.994-40c-1.505-7.386-4.645-14.183-9.021-20h30.02.009l.001 20z"/><path d="m40.009 193.209h.007c5.523 0 9.997-4.477 9.997-10s-4.481-10-10.004-10-10 4.477-10 10 4.477 10 10 10z"/></svg>