<svg height="512pt" viewBox="0 -26 512 512" width="512pt" xmlns="http://www.w3.org/2000/svg"><g fill-rule="evenodd"><path d="m435.417969 349.019531v-36.503906l-188.003907-34.648437-156.808593 34.648437h-19.167969v36.503906l177.351562 28.335938zm0 0" fill="#808080"/><path d="m108.238281 349.019531v-36.503906h-36.800781v36.503906zm0 0" fill="#525252"/><path d="m405.640625 0h-153.917969c-2.804687 0-5.121094 2.285156-5.121094 5.085938v33.296874l82.078126 16.335938 82.078124-16.335938v-33.296874c0-2.800782-2.3125-5.085938-5.117187-5.085938zm0 0" fill="#808080"/><path d="m267.015625 38.382812v-33.296874c0-2.800782 2.285156-5.085938 5.089844-5.085938h-20.382813c-2.804687 0-5.117187 2.285156-5.117187 5.085938v33.296874zm0 0" fill="#525252"/><path d="m53.832031 38.382812h399.21875c29.605469 0 53.832031 24.222657 53.832031 53.820313v166.488281c0 29.597656-24.226562 53.820313-53.832031 53.820313h-399.21875c-29.632812.003906-53.832031-24.222657-53.832031-53.820313v-166.488281c0-29.597656 24.199219-53.820313 53.832031-53.820313zm0 0" fill="#e8e8e8"/><path d="m31.683594 258.691406v-166.488281c0-29.597656 24.230468-53.820313 53.832031-53.820313h-31.683594c-21.453125 0-40.070312 12.71875-48.714843 30.960938-3.296876 6.964844-5.117188 14.710938-5.117188 22.859375v166.488281c0 8.152344 1.820312 15.898438 5.117188 22.835938 8.644531 18.269531 27.261718 30.984375 48.714843 30.984375h31.683594c-6.476563 0-12.691406-1.15625-18.445313-3.269531-4.769531-1.757813-9.222656-4.160157-13.238281-7.136719-13.417969-9.796875-22.148437-25.636719-22.148437-43.414063zm0 0" fill="#ccc"/><path d="m138.015625 425.816406-37.496094-20.953125-37.464843 20.953125v23.445313c0 5.375 4.390624 9.738281 9.742187 9.738281h55.476563c5.351562 0 9.746093-4.363281 9.746093-9.738281v-23.445313zm0 0" fill="#808080"/><path d="m448.570312 425.816406-43.652343-20.953125-31.3125 20.953125v23.445313c0 5.375 4.394531 9.738281 9.742187 9.738281h55.480469c5.347656 0 9.742187-4.363281 9.742187-9.738281zm0 0" fill="#808080"/></g><path d="m200.230469 320.308594c-4.308594 0-7.800781-3.492188-7.800781-7.792969v-274.132813c0-4.304687 3.492187-7.792968 7.800781-7.792968 4.308593 0 7.804687 3.488281 7.804687 7.792968v274.132813c0 4.300781-3.496094 7.792969-7.804687 7.792969zm0 0" fill="#fa6969"/><path d="m90.605469 320.308594c-4.308594 0-7.804688-3.492188-7.804688-7.792969v-274.132813c0-4.304687 3.496094-7.792968 7.804688-7.792968 4.308593 0 7.800781 3.488281 7.800781 7.792968v274.132813c0 4.300781-3.492188 7.792969-7.800781 7.792969zm0 0" fill="#fa6969"/><path d="m200.230469 114.710938h-109.625c-4.308594 0-7.804688-3.488282-7.804688-7.792969 0-4.308594 3.496094-7.796875 7.804688-7.796875h109.625c4.308593 0 7.804687 3.488281 7.804687 7.796875 0 4.304687-3.496094 7.792969-7.804687 7.792969zm0 0" fill="#fa6969"/><path d="m200.230469 183.242188h-109.625c-4.308594 0-7.804688-3.488282-7.804688-7.792969 0-4.304688 3.496094-7.796875 7.804688-7.796875h109.625c4.308593 0 7.804687 3.492187 7.804687 7.796875 0 4.304687-3.496094 7.792969-7.804687 7.792969zm0 0" fill="#fa6969"/><path d="m200.230469 251.773438h-109.625c-4.308594 0-7.804688-3.488282-7.804688-7.792969 0-4.304688 3.496094-7.792969 7.804688-7.792969h109.625c4.308593 0 7.804687 3.488281 7.804687 7.792969 0 4.304687-3.496094 7.792969-7.804687 7.792969zm0 0" fill="#fa6969"/><path d="m463.257812 349.019531h-447.933593c-5.609375 0-10.207031 4.597657-10.207031 10.203125v56.394532c0 5.605468 4.597656 10.203124 10.207031 10.203124h486.472656c5.578125 0 10.144531-4.539062 10.203125-10.117187v-56.566406c-.058594-5.578125-4.625-10.117188-10.203125-10.117188zm0 0" fill="#e8e8e8" fill-rule="evenodd"/><path d="m438.625 173.773438c0-49.6875-40.269531-89.980469-89.96875-89.980469-49.695312 0-89.996094 40.292969-89.996094 89.980469 0 49.683593 40.300782 89.949218 89.996094 89.949218 49.699219 0 89.96875-40.265625 89.96875-89.949218zm0 0" fill="#55b8e6" fill-rule="evenodd"/><path d="m286.847656 171.808594c0-42.691406 29.75-78.445313 69.671875-87.667969-2.597656-.230469-5.230469-.347656-7.859375-.347656-49.699218 0-90 40.292969-90 89.980469 0 49.683593 40.300782 89.949218 90 89.949218 6.964844 0 13.761719-.777344 20.292969-2.28125-45.996094-3.992187-82.105469-42.605468-82.105469-89.632812zm0 0" fill="#507fcf" fill-rule="evenodd"/><path d="m43.625 415.613281v-56.390625c0-5.605468 4.566406-10.203125 10.207031-10.203125h-38.507812c-5.609375 0-10.207031 4.597657-10.207031 10.203125v56.390625c0 5.609375 4.597656 10.203125 10.207031 10.203125h38.507812c-5.640625 0-10.207031-4.59375-10.207031-10.203125zm0 0" fill="#ccc" fill-rule="evenodd"/><path d="m101.5625 425.816406h-38.507812v23.445313c0 5.375 4.390624 9.738281 9.742187 9.738281h38.507813c-5.378907 0-9.742188-4.363281-9.742188-9.738281zm0 0" fill="#525252" fill-rule="evenodd"/><path d="m412.113281 425.816406h-38.507812v23.445313c0 5.375 4.394531 9.738281 9.742187 9.738281h38.511719c-5.351563 0-9.746094-4.363281-9.746094-9.738281zm0 0" fill="#525252" fill-rule="evenodd"/><path d="m385.660156 187.472656c0-5.925781-1.53125-11.503906-4.21875-16.417968l-15.902344-27.542969c-4.015624-6.59375 0 0-8.4375-14.164063-4.105468-5.839844-11.882812-6.765625-17.148437.980469l-8.035156 13.183594-16.046875 27.542969c-2.714844 4.914062-4.25 10.492187-4.25 16.417968 0 19.511719 16.570312 35.324219 37.035156 35.324219 20.441406 0 37.003906-15.816406 37.003906-35.324219zm0 0" fill="#ffcc73" fill-rule="evenodd"/><path d="m330.847656 183.3125c0-5.957031 1.53125-11.535156 4.253906-16.449219l16.070313-27.542969 5.984375-9.832031c-.027344-.054687-.027344-.085937-.058594-.144531-4.105468-5.835938-11.882812-6.761719-17.144531.984375l-8.035156 13.179687-16.046875 27.546876c-2.71875 4.914062-4.25 10.492187-4.25 16.417968 0 19.507813 16.566406 35.320313 37.035156 35.320313 6.359375 0 12.316406-1.53125 17.550781-4.21875-19.660156-.839844-35.359375-16.300781-35.359375-35.261719zm0 0" fill="#f59556" fill-rule="evenodd"/></svg>